<?xml version="1.0" standalone="no"?>
<!DOCTYPE svg PUBLIC "-//W3C//DTD SVG 20010904//EN"
 "http://www.w3.org/TR/2001/REC-SVG-20010904/DTD/svg10.dtd">
<svg version="1.0" xmlns="http://www.w3.org/2000/svg"
 width="818.000000pt" height="644.000000pt" viewBox="0 0 818.000000 644.000000"
 preserveAspectRatio="xMidYMid meet">

<g transform="translate(0.000000,644.000000) scale(0.100000,-0.100000)"
fill="#000000" stroke="none">
<path d="M4249 5610 c-331 -26 -665 -180 -908 -420 -234 -231 -378 -515 -424
-837 l-13 -88 -183 -5 -183 -5 -29 -33 c-23 -26 -29 -42 -29 -78 0 -39 5 -51
34 -80 l34 -34 391 0 391 0 5 -27 c3 -16 14 -65 24 -110 94 -396 441 -718 843
-783 112 -18 331 -8 433 20 231 63 461 214 536 351 32 59 34 70 34 154 0 75
-4 98 -25 140 -57 117 -167 185 -299 185 -91 0 -144 -20 -227 -87 -82 -66
-152 -100 -228 -113 -108 -17 -235 22 -318 98 -52 48 -84 58 -133 42 -65 -21
-94 -104 -60 -169 15 -29 105 -103 180 -147 58 -34 185 -64 269 -64 153 1 291
51 420 155 79 63 108 69 155 29 25 -21 31 -33 31 -67 0 -38 -6 -47 -58 -97
-217 -205 -579 -265 -856 -140 -196 88 -356 249 -432 438 -29 73 -55 172 -48
183 3 5 191 9 419 9 l413 0 31 25 c61 52 60 133 -4 183 -26 21 -38 22 -226 22
-131 0 -199 4 -199 10 0 20 38 86 79 137 58 74 145 115 255 121 125 7 178 -12
315 -113 62 -46 150 -25 178 42 23 56 10 93 -50 150 -163 153 -430 204 -640
122 -163 -64 -311 -226 -367 -399 l-23 -70 -302 0 c-166 0 -304 2 -307 5 -3 3
1 44 9 92 65 407 365 776 758 934 376 150 804 106 1146 -120 92 -61 208 -169
210 -196 3 -48 -3 -67 -27 -90 -42 -39 -83 -34 -146 20 -185 156 -336 231
-547 271 -115 22 -335 14 -436 -15 -303 -87 -553 -291 -681 -556 -51 -105 -42
-175 27 -211 36 -18 63 -18 106 2 26 13 42 33 70 88 103 206 274 360 481 431
95 34 231 48 340 35 188 -21 335 -89 482 -223 79 -72 146 -100 240 -101 66 -1
84 3 142 32 155 76 224 239 171 403 -44 137 -320 349 -593 457 -189 75 -432
109 -651 92z"/>
<path d="M3024 3900 c-37 -15 -74 -68 -74 -107 0 -48 52 -198 108 -308 228
-456 674 -758 1193 -807 244 -23 518 27 757 137 143 67 394 252 428 316 40 79
-15 169 -103 169 -43 0 -64 -12 -143 -84 -93 -84 -247 -178 -371 -226 -187
-72 -468 -100 -654 -66 -248 47 -459 154 -639 326 -152 145 -255 305 -324 502
-39 111 -48 124 -95 143 -42 17 -53 17 -83 5z"/>
</g>
</svg>
